<?xml version="1.0" encoding="utf-8"?>
<!-- Generator: Adobe Illustrator 25.4.1, SVG Export Plug-In . SVG Version: 6.00 Build 0)  -->
<svg version="1.1" id="Layer_1" xmlns="http://www.w3.org/2000/svg" xmlns:xlink="http://www.w3.org/1999/xlink" x="0px" y="0px"
	 viewBox="0 0 595.3 841.9" style="enable-background:new 0 0 595.3 841.9;" xml:space="preserve">
<style type="text/css">
	.st0{fill:#48B061;}
	.st1{fill:#5DB67A;}
	.st2{fill:#58B577;}
	.st3{fill:#2FAB56;}
	.st4{fill:#FBFDFC;}
	.st5{fill:#FBFDFB;}
</style>
<g>
	<path class="st0" d="M207.4,333.5c0.2-0.2,0.4-0.4,0.6-0.6c1.5-0.4,2.5-1.3,2.9-2.9c0.2-0.2,0.5-0.4,0.7-0.6
		c0.2-0.1,0.3-0.3,0.5-0.4c0.1-0.2,0.2-0.3,0.4-0.3c1.4,0.1,2.3-1,3.2-1.6c7.8-5.3,16.3-8.7,25.8-8.7c37.1,0,74.3,0,111.4-0.1
		c9.1,0,17.3,2.6,24.8,7.4c13.5,8.6,20.4,21.3,22.3,37c0,38.5,0,77,0,115.4c-0.9,6.7-2.4,13.1-5.8,19.1c-1,1.8-2.8,3.4-2.8,5.8
		c0,0.1-0.1,0.3-0.2,0.3c-1.2,0.1-1.8,1-2.5,1.8c-9,10.9-20.6,17.1-34.8,17.1c-37.7,0.2-75.4,0.1-113.2,0.1c-2.5,0-5-0.1-7.4-0.7
		c-9.8-2.7-18.7-7.1-25.7-14.8c-1.1-1.2-1.5-3-3.4-3.3l0.2-0.2l-0.2,0.2c0.3-1.8-1.3-2.7-2.1-3.9c-5.7-8.8-7-18.7-6.9-28.8
		c0.2-35.3-0.5-70.5,0.4-105.8c0.2-9.5,3-17.8,8-25.7C204.9,337.4,207.4,336.2,207.4,333.5 M267.7,415c-1,0-1.4-0.9-2-1.5
		c-6-5.9-11.9-12-17.9-17.9c-1.2-1.2-2.3-2.8-4-3.6c-0.1,0.3-0.3,0.5-0.3,0.7c0,23.9-0.1,47.8,0,71.7c0,5,4.2,9.5,9.2,10.5
		c7.2,1.4,12.4-2.4,14.7-10.6c0.2,0.6,0.5,1.1,1,2.4c0-17,0-33.3,0-49.6C268.5,416.3,268.4,415.5,267.7,415 M243.5,377.6
		c-0.1,3.5,1.3,6.4,3.7,8.8c16.2,16.2,32.5,32.4,48.6,48.7c1.6,1.6,2.3,1.1,3.6-0.2c5.8-5.9,11.7-11.7,17.5-17.5
		c10.4-10.4,20.8-20.7,31.1-31.2c5.1-5.1,4.8-12.7-0.4-17.4c-5.1-4.5-11.9-4-17.2,1.3c-10.3,10.3-20.7,20.6-30.9,31
		c-1.4,1.5-2.3,1.7-3.8,0c-2.9-3.2-6.1-6.1-9.1-9.2c-7.5-7.5-14.9-15-22.4-22.4c-3.9-3.8-8.5-4.9-13.5-2.8
		C246.1,368.7,243.7,372.4,243.5,377.6 M351.3,392.2c-0.6-0.1-0.9,0.4-1.2,0.7c-7.1,7-14.1,14.1-21.2,21.1c-0.9,0.9-1.1,1.9-1.1,3.1
		c0,15.2,0,30.3,0,45.5c0,2.4,0.4,4.8,1.7,6.9c3,4.7,8.4,6.8,13.7,5.2c5-1.5,8.3-5.9,8.3-11.5c0-23,0-46.1,0-69.1
		C351.6,393.5,351.8,392.8,351.3,392.2"/>
	<path class="st1" d="M399.9,362.7c-1.8-15.7-8.8-28.4-22.3-37c-7.5-4.8-15.7-7.4-24.8-7.4c-37.1,0.1-74.3,0-111.4,0.1
		c-9.5,0-18,3.4-25.8,8.7c-1,0.7-1.8,1.7-3.2,1.6c5.9-5.7,13.2-8.6,21.1-10.5c3.6-0.8,7.2-0.9,10.9-0.9c36,0,72,0,108,0
		c24.7,0,46.1,19.5,48.3,44.1c0,0.5-0.1,0.9-0.2,1.4C400.3,362.8,400.1,362.8,399.9,362.7"/>
	<path class="st2" d="M204.3,503.6c1.9,0.3,2.3,2.2,3.4,3.3c7,7.7,15.8,12.1,25.7,14.8c2.4,0.6,4.9,0.7,7.4,0.7
		c37.7,0,75.4,0.2,113.2-0.1c14.1-0.1,25.7-6.2,34.8-17.2c0.7-0.8,1.3-1.7,2.5-1.8c-5.4,8.3-13.1,13.5-22.1,17.1
		c-5.4,2.1-11,3.1-16.9,3.1c-36.5,0-73.1,0.1-109.6-0.1c-15.3-0.1-27.7-6.6-37.4-18.4C204.8,504.7,204.6,504.1,204.3,503.6"/>
	<path class="st2" d="M207.4,333.5c0,2.7-2.5,3.9-3.8,5.9c-5,7.9-7.7,16.2-8,25.7c-0.9,35.3-0.1,70.5-0.4,105.8
		c-0.1,10.1,1.2,20,6.9,28.8c0.8,1.2,2.4,2.1,2.1,3.9c-5.3-6-7.7-13.3-9.2-21c-0.5-2.7-0.7-5.5-0.7-8.3c0-36.6-0.1-73.2,0.1-109.7
		c0.1-11.7,4.6-21.8,12.2-30.7C206.9,333.7,207.2,333.6,207.4,333.5"/>
	<path class="st3" d="M399.9,362.7c0.2,0,0.4,0.1,0.6,0.1c0,4.9,0.1,9.8,0.1,14.7c0,32.4,0,64.7,0,97.1c0,1.1-0.1,2.3-0.1,3.4
		c-0.2,0-0.4,0.1-0.6,0.1C399.9,439.7,399.9,401.2,399.9,362.7"/>
	<path class="st1" d="M399.9,478.2c0.2,0,0.4-0.1,0.6-0.1c0.1,7.3-2.4,13.8-5.7,20.1c-0.9,1.8-1.7,3.7-3.4,4.9
		c0-2.4,1.8-3.9,2.8-5.8C397.5,491.3,399,484.9,399.9,478.2"/>
	<path class="st2" d="M210.9,330c-0.4,1.5-1.3,2.5-2.9,2.9C208.6,331.5,209.6,330.7,210.9,330"/>
	<path class="st1" d="M212,329c-0.2,0.1-0.3,0.3-0.5,0.4C211.7,329.3,211.9,329.2,212,329"/>
	<path class="st4" d="M243.5,377.6c0.1-5.1,2.6-8.9,7.2-10.8c5-2.2,9.6-1,13.5,2.8c7.5,7.4,14.9,14.9,22.4,22.4
		c3.1,3.1,6.2,6,9.1,9.2c1.5,1.7,2.4,1.4,3.8,0c10.3-10.4,20.6-20.7,30.9-31c5.3-5.3,12.2-5.8,17.2-1.3c5.2,4.7,5.5,12.3,0.4,17.4
		c-10.3,10.4-20.7,20.8-31.1,31.2c-5.8,5.8-11.7,11.6-17.5,17.5c-1.3,1.3-2,1.7-3.6,0.2c-16.2-16.3-32.4-32.5-48.6-48.7
		C244.8,383.9,243.4,381.1,243.5,377.6"/>
	<path class="st5" d="M267.5,464.3c-2.3,8.3-7.5,12-14.7,10.6c-4.9-0.9-9.2-5.4-9.2-10.5c-0.1-23.9,0-47.8,0-71.7
		c0-0.2,0.1-0.3,0.3-0.7c1.7,0.8,2.7,2.4,4,3.6c6,5.9,11.9,11.9,17.9,17.9c0.6,0.6,0.9,1.5,2,1.5c-0.1,0.1-0.1,0.3,0,0.4
		c-0.3,0.3-0.3,0.6-0.2,0.9C267.2,432.3,267.3,448.3,267.5,464.3"/>
	<path class="st4" d="M351.3,392.2c0.5,0.6,0.3,1.3,0.3,1.9c0,23,0,46.1,0,69.1c0,5.6-3.3,10-8.3,11.5c-5.4,1.6-10.8-0.5-13.7-5.2
		c-1.3-2.1-1.7-4.5-1.7-6.9c0-15.2,0-30.3,0-45.5c0-1.2,0.2-2.2,1.1-3.1c7.1-7,14.1-14.1,21.2-21.1
		C350.5,392.6,350.7,392.1,351.3,392.2"/>
	<path class="st3" d="M267.5,464.3c-0.2-16-0.3-32,0-47.9c0.1-0.3,0.1-0.6,0.2-0.9c-0.1-0.1-0.1-0.3,0-0.4c0.7,0.5,0.8,1.3,0.8,2.1
		c0,16.3,0,32.5,0,49.6C268,465.4,267.7,464.8,267.5,464.3"/>
	<path class="st0" d="M267.7,415.4c-0.1,0.3-0.1,0.6-0.2,0.9C267.4,416,267.4,415.7,267.7,415.4"/>
</g>
</svg>
